<?xml version="1.0" encoding="UTF-8" standalone="no"?>
<svg
   version="1.0"
   width="232.49725pt"
   height="80.000008pt"
   viewBox="0 0 232.49725 80.000008"
   preserveAspectRatio="xMidYMid"
   id="svg281"
   sodipodi:docname="INAH_b.svg"
   inkscape:version="1.1.2 (0a00cf5339, 2022-02-04)"
   xmlns:inkscape="http://www.inkscape.org/namespaces/inkscape"
   xmlns:sodipodi="http://sodipodi.sourceforge.net/DTD/sodipodi-0.dtd"
   xmlns="http://www.w3.org/2000/svg"
   xmlns:svg="http://www.w3.org/2000/svg">
  <defs
     id="defs285" />
  <sodipodi:namedview
     id="namedview283"
     pagecolor="#ffffff"
     bordercolor="#000000"
     borderopacity="0.25"
     inkscape:showpageshadow="2"
     inkscape:pageopacity="0.0"
     inkscape:pagecheckerboard="0"
     inkscape:deskcolor="#d1d1d1"
     inkscape:document-units="pt"
     showgrid="false"
     inkscape:zoom="2.7474093"
     inkscape:cx="164.70061"
     inkscape:cy="59.874588"
     inkscape:window-width="1366"
     inkscape:window-height="699"
     inkscape:window-x="0"
     inkscape:window-y="0"
     inkscape:window-maximized="1"
     inkscape:current-layer="svg281"
     inkscape:pageshadow="0" />
  <metadata
     id="metadata265">
Created by potrace 1.16, written by Peter Selinger 2001-2019
</metadata>
  <g
     transform="matrix(0.06021652,0,0,-0.06021652,0.06149023,80.087972)"
     fill="#000000"
     stroke="none"
     id="g279">
    <path
       d="m 597,1225 c -32,-58 -60,-105 -63,-105 -2,0 -17,27 -34,60 -23,45 -36,60 -52,60 -32,0 -308,-132 -320,-153 -7,-14 1,-37 40,-105 l 49,-87 -46,-6 C 110,880 80,867 53,838 -4,777 -19,648 23,570 52,514 113,480 182,480 h 49 l -45,-84 c -26,-45 -46,-92 -46,-104 0,-16 28,-35 135,-91 80,-42 148,-71 166,-71 26,0 33,7 66,74 l 36,73 36,-8 c 46,-11 126,-11 172,0 l 36,8 36,-73 c 33,-67 40,-74 66,-74 18,0 86,29 166,71 110,58 135,75 135,92 0,12 -18,55 -40,95 -22,40 -40,77 -40,83 0,5 20,9 43,9 107,0 177,78 177,196 0,74 -14,120 -49,158 -31,33 -59,46 -123,55 l -47,6 43,71 c 53,86 60,105 44,127 -17,21 -286,147 -315,147 -18,0 -30,-14 -53,-60 -17,-33 -32,-60 -34,-60 -2,0 -30,47 -62,105 -31,58 -62,105 -68,105 -6,0 -37,-47 -69,-105 z m 143,-217 v -28 h -75 c -74,0 -75,0 -75,26 0,14 17,57 37,94 l 38,69 37,-67 c 21,-37 38,-79 38,-94 z m -267,42 48,-89 -64,-63 c -70,-70 -97,-131 -97,-219 0,-40 -3,-47 -16,-42 -9,3 -31,-7 -54,-26 -54,-43 -83,-55 -123,-47 -59,11 -104,80 -93,142 4,17 20,44 37,60 39,38 103,41 146,6 48,-38 70,-47 88,-32 26,21 17,56 -45,180 -33,66 -60,123 -60,128 0,8 158,90 175,91 6,1 32,-40 58,-89 z m 531,49 c 47,-23 86,-46 86,-50 0,-5 -27,-63 -60,-129 -62,-124 -71,-159 -45,-180 18,-15 40,-6 88,32 20,16 42,23 72,23 78,0 132,-78 105,-150 -17,-44 -49,-74 -87,-81 -40,-8 -69,4 -123,47 -23,19 -45,29 -54,26 -13,-5 -16,2 -16,42 0,88 -27,149 -97,218 l -63,63 48,90 c 26,49 50,90 54,90 3,0 45,-19 92,-41 z M 778,874 c 24,-14 56,-44 73,-67 l 31,-42 -106,-3 c -58,-1 -155,-1 -216,0 l -111,3 29,41 c 73,100 196,128 300,68 z M 494,635 c 15,-81 113,-144 201,-130 62,9 121,62 138,122 9,35 15,43 34,43 34,0 30,-44 -9,-110 -94,-156 -315,-144 -399,22 -27,54 -25,88 5,88 19,0 25,-7 30,-35 z m 256,20 c 0,-27 -47,-65 -80,-65 -42,0 -67,15 -85,50 l -16,30 h 91 c 74,0 90,-3 90,-15 z M 405,518 c 17,-29 49,-66 71,-84 l 42,-31 -43,-83 c -24,-45 -48,-87 -53,-92 -9,-9 -192,69 -192,83 0,13 132,259 139,259 3,-1 20,-24 36,-52 z m 629,-72 c 36,-69 66,-129 66,-134 0,-7 -103,-59 -177,-89 -6,-3 -32,34 -61,88 l -50,92 41,31 c 23,18 56,55 72,84 17,28 33,51 37,52 3,0 36,-56 72,-124 z M 737,357 c -5,-17 -58,-28 -99,-21 -38,6 -53,17 -45,32 8,12 149,2 144,-11 z"
       id="path267" />
    <path
       d="M 1430,670 V 320 h 105 105 v 350 350 h -105 -105 z"
       id="path269" />
    <path
       d="M 1730,670 V 320 h 100 100 v 191 192 l 148,-192 147,-191 h 103 102 v 350 350 h -100 -100 l -2,-192 -3,-191 -149,191 -149,192 h -98 -99 z"
       id="path271" />
    <path
       d="m 2605,679 c -71,-187 -132,-345 -133,-350 -3,-6 34,-9 93,-7 l 98,3 20,58 21,58 129,-3 129,-3 22,-55 22,-55 97,-3 97,-3 -15,38 c -8,21 -68,178 -133,348 l -118,310 -100,3 -99,2 z m 292,-86 c -3,-2 -33,-3 -69,-1 l -64,3 35,89 34,90 34,-88 c 19,-49 32,-90 30,-93 z"
       id="path273" />
    <path
       d="M 3230,670 V 320 h 100 100 v 140 140 h 115 115 V 460 320 h 100 100 v 350 350 H 3760 3660 V 885 750 h -115 -115 v 135 135 h -100 -100 z"
       id="path275" />
    <path
       d="M 592,234 C 545,201 526,123 553,70 c 7,-13 28,-35 46,-47 107,-72 236,50 176,167 -22,43 -53,60 -110,60 -30,0 -60,-6 -73,-16 z m 114,-79 c 19,-30 11,-58 -21,-73 -19,-9 -28,-7 -49,9 -30,24 -32,36 -10,67 20,30 59,29 80,-3 z"
       id="path277" />
  </g>
  <path
     style="fill:#ffffff;stroke:#000000;stroke-width:0.26666667;stroke-miterlimit:4;stroke-dasharray:none;stroke-opacity:1"
     d="M 115.01745,52.958982 V 24.932579 h 8.18953 8.18953 v 28.026403 28.026403 h -8.18953 -8.18953 z"
     id="path4736"
     transform="scale(0.75)" />
  <path
     style="fill:#ffffff;stroke:#000000;stroke-width:0.26666667;stroke-miterlimit:4;stroke-dasharray:none;stroke-opacity:1"
     d="M 139.04008,52.958982 V 24.932579 h 7.75035 7.75036 l 11.99552,15.457335 c 6.59753,8.501534 12.11836,15.462637 12.2685,15.469118 0.15014,0.0065 0.27299,-5.450041 0.27299,-12.125605 0,-6.675564 0.10642,-13.636667 0.23649,-15.469118 l 0.23649,-3.33173 h 7.77105 7.77105 v 28.026403 28.026403 l -8.09854,-0.0068 -8.09853,-0.0068 -11.82933,-15.440448 c -6.50613,-8.492231 -11.95217,-15.450282 -12.10231,-15.462334 -0.15014,-0.01205 -0.27299,6.939188 -0.27299,15.447204 v 15.469118 h -7.82555 -7.82555 z"
     id="path4775"
     transform="scale(0.75)" />
  <path
     style="fill:#ffffff;stroke:#000000;stroke-width:0.26666667;stroke-miterlimit:4;stroke-dasharray:none;stroke-opacity:1"
     d="m 200.91655,80.621406 c -1.53085,-0.139168 -1.97407,-0.310453 -1.88369,-0.727959 0.0993,-0.458741 18.76168,-49.625045 20.316,-53.522811 l 0.51513,-1.291788 7.7243,0.150337 c 4.24837,0.08268 7.77187,0.192886 7.83,0.24489 0.0581,0.052 4.50468,11.621527 9.88121,25.710051 5.37652,14.088522 10.12584,26.496695 10.55403,27.57371 0.42819,1.077018 0.70959,2.027149 0.62534,2.111407 -0.0843,0.08425 -3.47952,0.02202 -7.54501,-0.138316 l -7.39183,-0.291511 -1.76689,-4.401674 -1.76689,-4.401677 -10.4366,-0.219444 c -5.74013,-0.120691 -10.48667,-0.169363 -10.54787,-0.10816 -0.0612,0.0612 -0.82609,2.140704 -1.69975,4.621117 l -1.58846,4.509838 -5.40857,0.18199 c -2.97471,0.100094 -6.30941,0.100094 -7.41045,0 z m 31.83786,-22.29373 c -0.26422,-1.249447 -4.76295,-13.357115 -5.08123,-13.675396 -0.10238,-0.102381 -0.23886,-0.117901 -0.30329,-0.03449 -0.23132,0.299483 -5.34254,13.852095 -5.34254,14.165975 0,0.398 1.94206,0.581082 7.03552,0.663253 l 3.9417,0.06359 z"
     id="path4814"
     transform="scale(0.75)" />
  <path
     style="fill:#ffffff;stroke:#000000;stroke-width:0.26666667;stroke-miterlimit:4;stroke-dasharray:none;stroke-opacity:1"
     d="M 259.51721,52.958982 V 24.932579 h 7.82556 7.82555 v 10.919378 10.919378 h 9.46346 9.46346 V 35.851957 24.932579 h 7.82555 7.82556 v 28.026403 28.026403 h -7.82556 -7.82555 V 69.702028 58.418671 h -9.46346 -9.46346 v 11.283357 11.283357 h -7.82555 -7.82556 z"
     id="path4853"
     transform="scale(0.75)" />
  <path
     style="fill:#ffffff;stroke:#000000;stroke-width:0.26666667;stroke-miterlimit:4;stroke-dasharray:none;stroke-opacity:1"
     d="M 33.304102,95.557819 C 30.250638,94.44793 26.664191,92.741791 20.447672,89.441784 13.874048,85.95221 11.647336,84.31573 11.647336,82.974131 c 0,-0.771887 5.226631,-11.467039 6.710785,-13.732144 l 0.583666,-0.890788 -3.636541,-0.250461 C 11.069882,67.80903 8.262418,66.94324 5.8854456,65.195768 2.0453338,62.372647 0.37261933,58.438854 0.37261933,52.231024 c 0,-7.280135 2.88815707,-12.895498 7.78579737,-15.137712 1.0460411,-0.478895 3.6499313,-1.141118 5.7864233,-1.471609 L 17.82937,35.020809 16.6822,32.979523 C 16.051257,31.856816 14.926195,29.873598 14.182063,28.572372 10.996637,23.002176 10.065641,20.699091 10.607777,19.730348 11.561504,18.026132 33.451892,7.4615748 36.029402,7.4615748 c 1.113535,0 2.125932,1.2650179 4.504489,5.6284882 1.161869,2.131451 2.303549,3.813539 2.53706,3.737972 0.233514,-0.07557 2.144372,-3.103025 4.246353,-6.727684 2.10198,-3.6246602 4.366215,-7.3610822 5.031634,-8.3031606 l 1.209856,-1.71286968 0.97402,1.35664758 c 0.535712,0.7461561 2.77572,4.4841179 4.977795,8.3065819 2.202074,3.8224638 4.191501,7.0091138 4.42095,7.0814428 0.229449,0.07233 1.362877,-1.631561 2.518733,-3.786424 2.293976,-4.2766643 3.354123,-5.5809942 4.536175,-5.5809942 2.409557,0 23.947328,10.3138772 25.232433,12.0831542 0.68756,0.946608 0.690752,1.040336 0.08907,2.615826 -0.343225,0.898721 -2.102257,4.114872 -3.908959,7.147002 -1.806705,3.03213 -3.219131,5.578751 -3.138724,5.659157 0.08041,0.08041 1.424371,0.323971 2.986588,0.541256 4.971662,0.691494 7.205246,1.580759 9.645855,3.840335 3.37769,3.127146 4.75319,6.816699 4.75319,12.749662 0,5.066239 -1.44128,9.119089 -4.28262,12.042611 -2.2276,2.292035 -4.912406,3.410493 -9.339653,3.890789 -2.836814,0.307759 -3.681829,0.52595 -3.767826,0.972895 -0.06097,0.316891 1.288101,3.420728 2.997944,6.897421 1.70984,3.47669 3.108802,6.667325 3.108802,7.090298 0,1.080803 -1.483605,2.353777 -5.2777,4.528426 -4.722798,2.706946 -13.809886,7.118128 -16.523704,8.02116 -3.739039,1.244183 -4.182344,0.856636 -8.172055,-7.144185 l -2.021254,-4.053349 -2.292599,0.504777 c -5.069587,1.116197 -12.157646,0.951904 -17.033764,-0.39483 -0.392697,-0.108459 -1.24502,1.272613 -3.036078,4.919547 -2.452099,4.992937 -3.938663,6.930631 -5.272376,6.872391 -0.334971,-0.01463 -1.427991,-0.324269 -2.428934,-0.688099 z m 46.7113,-9.049937 c 6.248203,-2.908929 8.431558,-4.213002 8.431558,-5.035991 0,-1.434665 -10.363192,-20.505365 -11.142803,-20.505365 -0.252212,0 -1.395511,1.433168 -2.540663,3.184818 -2.497516,3.820261 -4.292502,5.864944 -7.229905,8.235635 -1.20962,0.976251 -2.243892,1.887997 -2.29838,2.026102 -0.0923,0.233955 4.574848,8.968813 5.988915,11.208625 1.371335,2.172126 2.409874,3.371223 2.919816,3.371223 0.293549,0 2.935707,-1.118272 5.871462,-2.485047 z m -44.728354,0.275744 c 2.36032,-3.836007 6.649437,-12.415202 6.343491,-12.688405 -0.175391,-0.156624 -1.265858,-0.972461 -2.423261,-1.812977 -2.169593,-1.575579 -5.225758,-5.206654 -7.654708,-9.094666 -0.763154,-1.22158 -1.582108,-2.220015 -1.819896,-2.218752 -0.482698,0.0025 -0.620772,0.226643 -4.697922,7.623972 -4.05757,7.361808 -6.47181,12.252459 -6.47181,13.110281 0,0.55702 0.801016,1.134323 3.366808,2.426508 3.900319,1.96428 10.288231,4.471631 11.434127,4.488065 0.560576,0.008 1.115157,-0.520837 1.923171,-1.834026 z m 22.857918,-7.503382 c 1.474968,-0.699917 1.435301,-1.580063 -0.09027,-2.003105 -1.557449,-0.431887 -8.630476,-0.810458 -9.775027,-0.523195 -1.2257,0.307632 -1.277167,1.460536 -0.09964,2.232081 2.016464,1.321238 7.461848,1.482014 9.964941,0.294219 z m -0.105398,-9.0436 c 3.294944,-0.858226 6.176048,-2.584598 8.551817,-5.124303 3.524254,-3.767441 6.078122,-10.005353 4.750988,-11.604453 -0.481399,-0.580048 -2.423319,-0.734004 -3.181779,-0.252252 -0.247226,0.157028 -0.78031,1.247022 -1.184629,2.422202 -1.066408,3.099567 -2.261308,4.9503 -4.541689,7.034438 -2.850937,2.605596 -5.287731,3.463452 -9.293304,3.271635 C 46.393419,65.660788 41.636687,61.722707 39.606621,54.778878 39.1575,53.242664 39.041449,53.133863 37.737446,53.026489 c -2.029315,-0.167095 -2.541265,0.423337 -2.351474,2.711959 0.35234,4.248762 4.989093,10.507408 9.60355,12.962779 3.837291,2.04184 8.844117,2.630922 13.050046,1.535417 z M 18.744932,61.007863 c 0.800754,-0.368846 2.452619,-1.409681 3.670811,-2.312968 2.813621,-2.086286 3.671424,-2.545009 5.246681,-2.805738 l 1.273927,-0.210853 0.24416,-3.998509 c 0.452062,-7.403221 2.2235,-11.022482 8.70811,-17.791698 l 4.22054,-4.405777 -2.867374,-5.277699 c -3.317408,-6.10604 -5.228154,-9.099482 -5.808295,-9.099482 -0.595063,0 -6.868463,3.009331 -10.775783,5.16911 -2.18992,1.210483 -3.366808,2.076632 -3.366808,2.477855 0,0.339265 0.918882,2.483726 2.041961,4.765469 3.547889,7.208194 6.556705,13.915096 7.043448,15.700432 0.563732,2.067734 0.09985,3.59554 -1.283014,4.225614 -1.149615,0.523799 -2.194739,0.12091 -5.141978,-1.982195 -3.036657,-2.166914 -4.395175,-2.693861 -6.945013,-2.693861 -3.6462,0 -6.7049609,2.035634 -8.5867974,5.714598 -0.756188,1.478335 -0.7665119,4.574207 -0.022534,6.757657 0.7287724,2.13883 3.1537358,4.907634 5.0542854,5.770942 1.943819,0.882963 5.373467,0.881602 7.293674,-0.0029 z m 76.850701,-0.06606 c 4.137436,-2.002902 6.541497,-7.576815 5.096717,-11.816984 -1.24095,-3.642002 -4.075049,-5.916937 -7.786502,-6.250241 -2.677228,-0.240426 -4.675114,0.310005 -6.883929,1.896573 -3.154011,2.265487 -5.07239,3.129664 -6.089271,2.743049 -0.497687,-0.189222 -1.078638,-0.668692 -1.290998,-1.065491 -0.966398,-1.805734 -0.319665,-3.705523 5.11563,-15.027199 2.178947,-4.538728 3.961721,-8.481441 3.961721,-8.761586 0,-0.280144 -1.20033,-1.196131 -2.667407,-2.035526 -2.89496,-1.65637 -11.105339,-5.519257 -11.73091,-5.519257 -0.459036,0 -2.804864,3.916335 -6.113636,10.206651 l -2.401225,4.564972 3.843686,3.806551 c 6.937179,6.870164 8.581295,10.163783 9.165154,18.360345 l 0.258888,3.634417 1.286292,0.208283 c 1.527515,0.247342 1.66463,0.321798 4.753627,2.581348 1.320069,0.965608 3.121766,2.083057 4.003772,2.483223 2.177156,0.987767 5.427269,0.983803 7.478391,-0.0091 z m -38.938279,-2.18751 c 1.759581,-0.851799 3.283496,-2.477636 3.634991,-3.878108 0.432204,-1.722041 -0.377701,-1.917203 -7.956295,-1.917203 h -6.853438 l 0.737593,1.445799 c 1.014268,1.988134 2.86745,4.024871 4.184156,4.598597 1.673187,0.729054 4.461898,0.617968 6.252993,-0.249085 z M 70.975955,45.369698 c 0,-0.621218 -3.607456,-5.053459 -5.492523,-6.748296 -5.344118,-4.804821 -12.854772,-5.952661 -19.665581,-3.005455 -1.589395,0.68777 -4.550316,2.852242 -5.721696,4.18263 -1.461715,1.660135 -4.062208,5.217471 -4.062208,5.556882 0,0.184767 7.506009,0.323938 17.471004,0.323938 9.609052,0 17.471004,-0.139364 17.471004,-0.309699 z M 59.589108,25.952089 c -0.165985,-1.83054 -0.660029,-3.152683 -2.618135,-7.006601 -2.671328,-5.257671 -3.264083,-6.191991 -3.741252,-5.897085 -0.804846,0.497421 -5.635527,10.771546 -5.815563,12.368814 -0.308115,2.73362 -0.173053,2.791176 6.549891,2.791176 h 5.829656 z"
     id="path4892"
     transform="scale(0.75)" />
  <path
     style="fill:#ffffff;stroke:#000000;stroke-width:0.26666667;stroke-miterlimit:4;stroke-dasharray:none;stroke-opacity:1"
     d="m 49.602756,105.37976 c -2.730005,-1.38164 -4.93134,-3.76355 -5.562885,-6.019207 -0.996023,-3.557444 0.552696,-8.580649 3.337671,-10.825595 2.757137,-2.222506 9.122427,-2.176895 12.248705,0.08777 1.795748,1.300833 3.411452,4.465099 3.630857,7.110831 0.439096,5.294921 -3.795307,10.221631 -9.129677,10.622341 -1.999589,0.15021 -2.521627,0.0376 -4.524671,-0.97614 z m 6.132819,-5.30964 c 3.580218,-1.851401 1.814678,-7.801378 -2.314907,-7.801378 -1.260834,0 -1.695095,0.221541 -2.883908,1.471243 -1.130158,1.188043 -1.39956,1.743083 -1.39956,2.883472 0,1.207381 0.220688,1.601129 1.521433,2.714518 1.712983,1.466255 3.233354,1.685505 5.076942,0.732145 z"
     id="path4931"
     transform="scale(0.75)" />
</svg>
