<?xml version="1.0" encoding="UTF-8" standalone="no"?>
<svg
   version="1.0"
   width="232.49725pt"
   height="80.000008pt"
   viewBox="0 0 232.49725 80.000008"
   preserveAspectRatio="xMidYMid"
   id="svg281"
   sodipodi:docname="INAH.svg"
   inkscape:version="1.2.2 (732a01da63, 2022-12-09)"
   xmlns:inkscape="http://www.inkscape.org/namespaces/inkscape"
   xmlns:sodipodi="http://sodipodi.sourceforge.net/DTD/sodipodi-0.dtd"
   xmlns="http://www.w3.org/2000/svg"
   xmlns:svg="http://www.w3.org/2000/svg">
  <defs
     id="defs285" />
  <sodipodi:namedview
     id="namedview283"
     pagecolor="#ffffff"
     bordercolor="#000000"
     borderopacity="0.25"
     inkscape:showpageshadow="2"
     inkscape:pageopacity="0.0"
     inkscape:pagecheckerboard="0"
     inkscape:deskcolor="#d1d1d1"
     inkscape:document-units="pt"
     showgrid="false"
     inkscape:zoom="2.7474093"
     inkscape:cx="257.33333"
     inkscape:cy="88.992928"
     inkscape:window-width="1920"
     inkscape:window-height="991"
     inkscape:window-x="-9"
     inkscape:window-y="-9"
     inkscape:window-maximized="1"
     inkscape:current-layer="svg281" />
  <metadata
     id="metadata265">
Created by potrace 1.16, written by Peter Selinger 2001-2019
</metadata>
  <g
     transform="matrix(0.06021652,0,0,-0.06021652,0.06149023,80.087972)"
     fill="#000000"
     stroke="none"
     id="g279">
    <path
       d="m 597,1225 c -32,-58 -60,-105 -63,-105 -2,0 -17,27 -34,60 -23,45 -36,60 -52,60 -32,0 -308,-132 -320,-153 -7,-14 1,-37 40,-105 l 49,-87 -46,-6 C 110,880 80,867 53,838 -4,777 -19,648 23,570 52,514 113,480 182,480 h 49 l -45,-84 c -26,-45 -46,-92 -46,-104 0,-16 28,-35 135,-91 80,-42 148,-71 166,-71 26,0 33,7 66,74 l 36,73 36,-8 c 46,-11 126,-11 172,0 l 36,8 36,-73 c 33,-67 40,-74 66,-74 18,0 86,29 166,71 110,58 135,75 135,92 0,12 -18,55 -40,95 -22,40 -40,77 -40,83 0,5 20,9 43,9 107,0 177,78 177,196 0,74 -14,120 -49,158 -31,33 -59,46 -123,55 l -47,6 43,71 c 53,86 60,105 44,127 -17,21 -286,147 -315,147 -18,0 -30,-14 -53,-60 -17,-33 -32,-60 -34,-60 -2,0 -30,47 -62,105 -31,58 -62,105 -68,105 -6,0 -37,-47 -69,-105 z m 143,-217 v -28 h -75 c -74,0 -75,0 -75,26 0,14 17,57 37,94 l 38,69 37,-67 c 21,-37 38,-79 38,-94 z m -267,42 48,-89 -64,-63 c -70,-70 -97,-131 -97,-219 0,-40 -3,-47 -16,-42 -9,3 -31,-7 -54,-26 -54,-43 -83,-55 -123,-47 -59,11 -104,80 -93,142 4,17 20,44 37,60 39,38 103,41 146,6 48,-38 70,-47 88,-32 26,21 17,56 -45,180 -33,66 -60,123 -60,128 0,8 158,90 175,91 6,1 32,-40 58,-89 z m 531,49 c 47,-23 86,-46 86,-50 0,-5 -27,-63 -60,-129 -62,-124 -71,-159 -45,-180 18,-15 40,-6 88,32 20,16 42,23 72,23 78,0 132,-78 105,-150 -17,-44 -49,-74 -87,-81 -40,-8 -69,4 -123,47 -23,19 -45,29 -54,26 -13,-5 -16,2 -16,42 0,88 -27,149 -97,218 l -63,63 48,90 c 26,49 50,90 54,90 3,0 45,-19 92,-41 z M 778,874 c 24,-14 56,-44 73,-67 l 31,-42 -106,-3 c -58,-1 -155,-1 -216,0 l -111,3 29,41 c 73,100 196,128 300,68 z M 494,635 c 15,-81 113,-144 201,-130 62,9 121,62 138,122 9,35 15,43 34,43 34,0 30,-44 -9,-110 -94,-156 -315,-144 -399,22 -27,54 -25,88 5,88 19,0 25,-7 30,-35 z m 256,20 c 0,-27 -47,-65 -80,-65 -42,0 -67,15 -85,50 l -16,30 h 91 c 74,0 90,-3 90,-15 z M 405,518 c 17,-29 49,-66 71,-84 l 42,-31 -43,-83 c -24,-45 -48,-87 -53,-92 -9,-9 -192,69 -192,83 0,13 132,259 139,259 3,-1 20,-24 36,-52 z m 629,-72 c 36,-69 66,-129 66,-134 0,-7 -103,-59 -177,-89 -6,-3 -32,34 -61,88 l -50,92 41,31 c 23,18 56,55 72,84 17,28 33,51 37,52 3,0 36,-56 72,-124 z M 737,357 c -5,-17 -58,-28 -99,-21 -38,6 -53,17 -45,32 8,12 149,2 144,-11 z"
       id="path267" />
    <path
       d="M 1430,670 V 320 h 105 105 v 350 350 h -105 -105 z"
       id="path269" />
    <path
       d="M 1730,670 V 320 h 100 100 v 191 192 l 148,-192 147,-191 h 103 102 v 350 350 h -100 -100 l -2,-192 -3,-191 -149,191 -149,192 h -98 -99 z"
       id="path271" />
    <path
       d="m 2605,679 c -71,-187 -132,-345 -133,-350 -3,-6 34,-9 93,-7 l 98,3 20,58 21,58 129,-3 129,-3 22,-55 22,-55 97,-3 97,-3 -15,38 c -8,21 -68,178 -133,348 l -118,310 -100,3 -99,2 z m 292,-86 c -3,-2 -33,-3 -69,-1 l -64,3 35,89 34,90 34,-88 c 19,-49 32,-90 30,-93 z"
       id="path273" />
    <path
       d="M 3230,670 V 320 h 100 100 v 140 140 h 115 115 V 460 320 h 100 100 v 350 350 H 3760 3660 V 885 750 h -115 -115 v 135 135 h -100 -100 z"
       id="path275" />
    <path
       d="M 592,234 C 545,201 526,123 553,70 c 7,-13 28,-35 46,-47 107,-72 236,50 176,167 -22,43 -53,60 -110,60 -30,0 -60,-6 -73,-16 z m 114,-79 c 19,-30 11,-58 -21,-73 -19,-9 -28,-7 -49,9 -30,24 -32,36 -10,67 20,30 59,29 80,-3 z"
       id="path277" />
  </g>
</svg>
