<?xml version="1.0" encoding="UTF-8" standalone="no"?>
<svg
   version="1.0"
   width="232.10454pt"
   height="60pt"
   viewBox="0 0 232.10454 60"
   preserveAspectRatio="xMidYMid"
   id="svg66"
   sodipodi:docname="SINAFO_b.svg"
   inkscape:version="1.1.2 (0a00cf5339, 2022-02-04)"
   xmlns:inkscape="http://www.inkscape.org/namespaces/inkscape"
   xmlns:sodipodi="http://sodipodi.sourceforge.net/DTD/sodipodi-0.dtd"
   xmlns="http://www.w3.org/2000/svg"
   xmlns:svg="http://www.w3.org/2000/svg">
  <defs
     id="defs70" />
  <sodipodi:namedview
     id="namedview68"
     pagecolor="#ffffff"
     bordercolor="#000000"
     borderopacity="0.25"
     inkscape:showpageshadow="2"
     inkscape:pageopacity="0.0"
     inkscape:pagecheckerboard="0"
     inkscape:deskcolor="#d1d1d1"
     inkscape:document-units="pt"
     showgrid="false"
     inkscape:zoom="2.279291"
     inkscape:cx="231.43161"
     inkscape:cy="25.665875"
     inkscape:window-width="1366"
     inkscape:window-height="699"
     inkscape:window-x="0"
     inkscape:window-y="0"
     inkscape:window-maximized="1"
     inkscape:current-layer="svg66"
     inkscape:pageshadow="0" />
  <metadata
     id="metadata2">
Created by potrace 1.16, written by Peter Selinger 2001-2019
</metadata>
  <g
     transform="matrix(0.07070897,0,0,-0.07070897,-0.10700512,60.102624)"
     fill="#000000"
     stroke="none"
     id="g64">
    <path
       d="M 115,826 C 57,799 37,779 15,727 -16,651 8,555 71,507 c 19,-14 73,-43 120,-65 48,-22 95,-51 107,-67 26,-33 29,-95 6,-130 l -16,-25 h 60 c 58,0 60,1 71,31 24,70 7,151 -44,200 -18,18 -80,56 -137,84 -88,43 -106,55 -121,87 -16,33 -17,40 -3,71 21,51 58,72 125,71 31,-1 73,-8 94,-17 l 37,-16 15,36 c 9,21 14,42 11,49 -7,17 -87,34 -163,34 -50,0 -81,-6 -118,-24 z"
       id="path4" />
    <path
       d="m 2839,832 c -65,-27 -104,-59 -143,-116 -54,-81 -69,-141 -65,-264 4,-95 8,-114 34,-167 l 30,-60 74,-3 73,-3 -35,42 c -113,131 -90,386 41,470 115,73 244,29 303,-104 20,-43 24,-69 24,-147 0,-104 -23,-176 -71,-221 -13,-12 -24,-26 -24,-31 0,-4 29,-8 64,-8 59,0 66,2 84,27 42,62 57,123 56,238 0,89 -4,121 -22,166 -29,72 -77,128 -143,164 -46,25 -67,30 -144,32 -70,3 -100,-1 -136,-15 z"
       id="path6" />
    <path
       d="M 540,530 V 220 h 55 55 v 310 310 h -55 -55 z"
       id="path8" />
    <path
       d="M 800,530 V 220 h 51 51 l -3,233 -4,234 52,-91 c 29,-50 92,-154 141,-231 l 88,-140 87,-3 87,-3 v 311 310 h -51 -51 l 4,-283 3,-283 -35,67 c -19,37 -96,164 -170,283 l -135,215 -57,1 h -58 z"
       id="path10" />
    <path
       d="m 1685,828 c -15,-41 -205,-600 -205,-604 0,-2 24,-4 53,-4 h 54 l 18,60 18,60 h 122 123 l 22,-60 22,-60 h 55 c 52,0 54,1 47,23 -4,12 -51,150 -104,307 l -98,285 -61,3 c -43,2 -63,-1 -66,-10 z m 66,-406 c -51,-1 -95,-1 -97,1 -2,1 17,64 41,137 24,74 45,144 45,155 1,11 24,-50 53,-135 l 52,-155 z"
       id="path12" />
    <path
       d="M 2150,530 V 220 h 50 50 v 110 110 h 135 135 v 45 45 h -135 -135 v 110 110 h 150 150 v 45 45 h -200 -200 z"
       id="path14" />
    <path
       d="m 30,90 c 0,-64 3,-80 15,-80 10,0 15,10 15,30 0,27 3,30 30,30 20,0 30,5 30,15 0,10 -10,15 -30,15 -23,0 -30,4 -30,20 0,16 7,20 35,20 24,0 35,5 35,15 0,11 -12,15 -50,15 H 30 Z"
       id="path16" />
    <path
       d="m 1170,90 c 0,-64 3,-80 15,-80 11,0 15,13 15,53 v 52 l 37,-53 c 21,-30 44,-52 55,-52 16,0 18,9 18,80 0,63 -3,80 -14,80 -11,0 -16,-15 -18,-52 l -3,-51 -35,51 c -20,29 -43,52 -52,52 -16,0 -18,-10 -18,-80 z"
       id="path18" />
    <path
       d="m 1635,160 c -8,-13 4,-32 16,-25 12,8 12,35 0,35 -6,0 -13,-4 -16,-10 z"
       id="path20" />
    <path
       d="m 2170,90 c 0,-64 3,-80 15,-80 12,0 15,16 15,80 0,64 -3,80 -15,80 -12,0 -15,-16 -15,-80 z"
       id="path22" />
    <path
       d="m 2400,146 c 0,-19 -4,-23 -20,-19 -34,9 -70,-23 -70,-62 0,-45 31,-67 83,-58 l 37,6 v 78 c 0,64 -3,79 -15,79 -9,0 -15,-9 -15,-24 z m -2,-72 c 4,-29 -23,-51 -43,-34 -18,15 -19,32 -3,48 18,18 42,10 46,-14 z"
       id="path24" />
    <path
       d="m 2620,90 c 0,-73 2,-80 20,-80 18,0 20,7 20,80 0,73 -2,80 -20,80 -18,0 -20,-7 -20,-80 z"
       id="path26" />
    <path
       d="m 2770,90 c 0,-73 2,-80 20,-80 18,0 20,7 20,80 0,73 -2,80 -20,80 -18,0 -20,-7 -20,-80 z"
       id="path28" />
    <path
       d="m 321,132 c -8,-16 -7,-40 5,-98 2,-12 11,-24 19,-28 18,-6 45,2 45,15 0,5 -7,9 -15,9 -10,0 -15,11 -15,35 0,24 5,35 15,35 8,0 15,5 15,10 0,6 -7,10 -15,10 -8,0 -15,7 -15,15 0,21 -27,19 -39,-3 z"
       id="path30" />
    <path
       d="m 576,128 c -13,-14 -15,-23 -8,-26 7,-2 12,-19 12,-37 0,-37 25,-69 47,-61 8,3 17,6 19,6 2,0 4,5 4,10 0,6 -7,10 -15,10 -10,0 -15,11 -15,35 0,24 5,35 15,35 8,0 15,5 15,10 0,6 -7,10 -15,10 -8,0 -15,7 -15,15 0,22 -23,18 -44,-7 z"
       id="path32" />
    <path
       d="m 2850,75 c 0,-50 3,-65 14,-65 10,0 16,13 18,37 l 3,37 25,-37 c 14,-20 33,-37 43,-37 14,0 17,10 17,65 0,51 -3,65 -15,65 -11,0 -15,-11 -15,-42 V 55 l -28,42 c -15,24 -35,43 -44,43 -15,0 -18,-10 -18,-65 z"
       id="path34" />
    <path
       d="M 3037,128 C 2987,4 2989,10 3009,10 c 10,0 21,9 24,20 7,26 44,26 52,0 3,-11 13,-20 22,-20 8,0 13,6 11,13 -3,6 -13,36 -23,65 -19,51 -46,70 -58,40 z m 28,-48 c 3,-5 1,-10 -4,-10 -6,0 -11,5 -11,10 0,6 2,10 4,10 3,0 8,-4 11,-10 z"
       id="path36" />
    <path
       d="m 3150,75 c 0,-51 3,-65 15,-65 9,0 15,9 15,25 0,20 5,25 25,25 20,0 25,-5 25,-25 0,-16 6,-25 15,-25 12,0 15,14 15,65 0,51 -3,65 -15,65 -9,0 -15,-9 -15,-25 0,-20 -5,-25 -25,-25 -20,0 -25,5 -25,25 0,16 -6,25 -15,25 -12,0 -15,-14 -15,-65 z"
       id="path38" />
    <path
       d="M 183,120 C 136,101 144,19 195,6 c 43,-11 79,13 83,56 5,54 -39,81 -95,58 z m 61,-42 c 13,-22 -14,-54 -38,-45 -16,6 -22,48 -9,61 11,11 35,3 47,-16 z"
       id="path40" />
    <path
       d="M 443,120 C 396,101 404,19 455,6 c 43,-11 79,13 83,56 5,54 -39,81 -95,58 z m 57,-35 c 15,-18 7,-43 -16,-52 -24,-9 -46,24 -33,48 12,23 32,24 49,4 z"
       id="path42" />
    <path
       d="m 690,110 c -49,-49 3,-126 71,-105 29,9 23,25 -10,25 -16,0 -34,7 -41,15 -11,13 -6,15 34,15 39,0 46,3 46,19 0,22 -35,51 -62,51 -10,0 -27,-9 -38,-20 z m 60,-20 c 0,-5 -9,-10 -20,-10 -11,0 -20,5 -20,10 0,6 9,10 20,10 11,0 20,-4 20,-10 z"
       id="path44" />
    <path
       d="M 843,115 C 810,92 811,36 845,14 861,4 879,0 895,4 c 33,8 32,24 -1,28 -57,7 -53,68 3,68 15,0 23,5 21,13 -7,18 -50,20 -75,2 z"
       id="path46" />
    <path
       d="m 973,123 c -27,-10 -13,-30 18,-25 41,6 31,-13 -11,-21 -24,-5 -30,-12 -30,-31 0,-32 27,-47 72,-40 l 35,6 -4,47 c -7,60 -35,83 -80,64 z m 47,-73 c 0,-12 -28,-25 -36,-17 -9,9 6,27 22,27 8,0 14,-5 14,-10 z"
       id="path48" />
    <path
       d="m 1368,123 c -27,-7 -10,-31 18,-25 13,2 24,0 24,-6 0,-5 -13,-12 -30,-15 -25,-6 -30,-11 -30,-36 0,-34 15,-42 64,-34 35,6 36,6 36,54 0,61 -23,78 -82,62 z m 52,-73 c 0,-12 -28,-25 -36,-17 -9,9 6,27 22,27 8,0 14,-5 14,-10 z"
       id="path50" />
    <path
       d="m 1520,117 c -20,-10 -25,-20 -25,-52 0,-34 4,-42 28,-53 27,-13 67,-8 67,8 0,5 -12,10 -26,12 -57,7 -53,68 3,68 15,0 23,5 21,13 -6,17 -39,19 -68,4 z"
       id="path52" />
    <path
       d="m 1722,114 c -32,-22 -30,-78 3,-100 66,-43 140,41 85,96 -24,24 -57,26 -88,4 z m 63,-49 c 0,-23 -5,-30 -19,-30 -28,0 -43,29 -26,50 21,25 45,14 45,-20 z"
       id="path54" />
    <path
       d="m 1887,123 c -24,-4 -28,-8 -23,-26 3,-12 6,-37 6,-54 0,-23 5,-33 15,-33 11,0 15,11 15,40 0,28 5,43 16,47 21,8 34,-13 34,-54 0,-23 5,-33 15,-33 21,0 21,83 -1,104 -15,16 -23,17 -77,9 z"
       id="path56" />
    <path
       d="m 2037,123 c -28,-7 -14,-28 16,-25 15,2 27,-1 27,-7 0,-6 -11,-11 -25,-11 -41,0 -57,-59 -20,-74 8,-3 30,-2 49,1 35,6 36,6 36,54 0,61 -22,78 -83,62 z m 53,-73 c 0,-12 -28,-25 -36,-17 -9,9 6,27 22,27 8,0 14,-5 14,-10 z"
       id="path58" />
    <path
       d="m 2492,114 c -34,-23 -28,-84 10,-102 27,-13 78,-7 78,9 0,5 -13,9 -29,9 -16,0 -34,7 -41,15 -11,13 -6,15 34,15 52,0 60,16 26,50 -24,24 -48,25 -78,4 z m 58,-24 c 0,-5 -12,-10 -26,-10 -14,0 -23,4 -19,10 3,6 15,10 26,10 10,0 19,-4 19,-10 z"
       id="path60" />
    <path
       d="m 1630,65 c 0,-42 3,-55 15,-55 12,0 15,13 15,55 0,42 -3,55 -15,55 -12,0 -15,-13 -15,-55 z"
       id="path62" />
  </g>
  <path
     style="fill:#ffffff;stroke:#000000;stroke-width:0.26666667;stroke-miterlimit:4;stroke-dasharray:none"
     d="m 27.610561,58.937242 c 0,-0.08897 0.358595,-0.703641 0.796877,-1.365931 2.256229,-3.40939 2.185897,-9.425368 -0.148517,-12.70375 C 27.224071,43.41425 23.145383,40.89232 15.976897,37.273354 8.1520025,33.323006 5.9314123,31.909506 4.2918867,29.83535 1.568173,26.389593 0.31023102,22.764385 0.31023102,18.360789 c 0,-5.056564 1.75981378,-9.4503821 4.97865288,-12.4304591 1.9855039,-1.8382264 6.4189781,-4.185978 9.4563211,-5.00760596 4.384549,-1.1860589 14.082903,-0.7821552 19.204716,0.79981156 2.531137,0.7817884 3.367998,1.5148822 3.085579,2.7029813 -0.330629,1.3909199 -0.993648,3.2816504 -1.741497,4.9662381 L 34.590759,10.975864 32.531923,10.066983 C 30.048292,8.9705734 27.108096,8.3207335 23.3959,8.0477454 16.800077,7.5627007 12.777509,9.6137391 10.507982,14.619075 c -1.220734,2.69227 -1.1750265,4.118906 0.221394,6.910186 1.460541,2.91945 2.719567,3.850642 10.893921,8.057287 7.679105,3.951783 11.864659,6.596977 13.983443,8.837276 3.398572,3.593493 5.130551,9.101375 4.425406,14.073286 -0.428805,3.023471 -1.145913,5.072352 -2.066362,5.903879 -0.731007,0.660389 -1.030963,0.69802 -5.563941,0.69802 -2.635206,0 -4.791282,-0.0728 -4.791282,-0.161767 z"
     id="path965"
     transform="scale(0.75)" />
  <path
     style="fill:#ffffff;stroke:#000000;stroke-width:0.26666667;stroke-miterlimit:4;stroke-dasharray:none"
     d="M 50.877887,30.092409 V 1.0858086 h 5.118812 5.118812 v 29.0066004 29.0066 h -5.118812 -5.118812 z"
     id="path1004"
     transform="scale(0.75)" />
  <path
     style="fill:#ffffff;stroke:#000000;stroke-width:0.26666667;stroke-miterlimit:4;stroke-dasharray:none"
     d="m 119.74917,59.085427 c -2.81534,-0.115949 -5.97017,-0.230126 -7.01072,-0.253732 l -1.89192,-0.04292 -7.61374,-12.176567 C 94.652894,32.890472 91.665942,27.964947 87.527603,20.714125 c -1.580539,-2.769278 -3.024531,-5.128264 -3.20887,-5.242192 -0.238604,-0.147466 -0.278207,1.973413 -0.137465,7.361782 0.108734,4.162909 0.28843,14.025608 0.399325,21.917109 l 0.201628,14.348185 H 80.084179 75.386138 V 30.085083 1.071157 l 5.315539,0.084884 5.31554,0.084883 6.047336,9.617162 c 12.615877,20.063202 19.956107,32.225303 24.246877,40.174917 l 1.92563,3.567656 -0.17841,-23.112211 c -0.0981,-12.711716 -0.26629,-24.7525571 -0.3737,-26.7574251 l -0.19529,-3.6452144 h 4.69741 4.69742 V 30.247524 59.40924 l -1.00825,-0.0565 c -0.55454,-0.03108 -3.31172,-0.151365 -6.12707,-0.267314 z"
     id="path1043"
     transform="scale(0.75)" />
  <path
     style="fill:#ffffff;stroke:#000000;stroke-width:0.26666667;stroke-miterlimit:4;stroke-dasharray:none"
     d="m 139.60396,58.970431 c 0,-0.16209 11.55714,-34.35265 15.9484,-47.181652 1.8739,-5.4745611 3.51658,-9.7842022 3.81354,-10.0049506 0.60295,-0.4482166 1.28085,-0.4881477 6.76281,-0.3983564 2.21815,0.036332 4.15507,0.1826209 4.30427,0.3250863 0.60739,0.5800032 19.50904,56.4206227 19.29063,56.9897917 -0.1253,0.326521 -1.16341,0.396643 -4.87387,0.329217 l -4.71466,-0.08567 -2.00472,-5.506601 -2.00472,-5.506601 H 164.42292 152.7202 l -1.66339,5.584159 -1.6634,5.584158 h -4.89472 c -2.6921,0 -4.89473,-0.05786 -4.89473,-0.128578 z m 31.56712,-18.684811 2.81096,-0.199528 -3.51351,-10.425884 c -3.93444,-11.674909 -5.95538,-17.095852 -6.37339,-17.095852 -0.15474,0 -0.36773,0.383911 -0.47331,0.853136 -0.39964,1.776027 -2.35769,8.281497 -4.92552,16.364686 -1.46351,4.60693 -2.74614,8.899752 -2.85029,9.539604 l -0.18935,1.163366 h 6.35173 c 3.49345,0 7.61666,-0.08979 9.16268,-0.199528 z"
     id="path1082"
     transform="scale(0.75)" />
  <path
     style="fill:#ffffff;stroke:#000000;stroke-width:0.26666667;stroke-miterlimit:4;stroke-dasharray:none"
     d="M 202.58086,30.092409 V 1.0858086 h 18.76897 18.76898 V 5.1188118 9.1518151 H 226.0033 211.88779 V 19.69967 30.247524 h 12.71947 12.71947 v 4.188119 4.188119 h -12.71947 -12.71947 v 10.237623 10.237624 h -4.65347 -4.65346 z"
     id="path1121"
     transform="scale(0.75)" />
  <path
     style="fill:#ffffff;stroke:#000000;stroke-width:0.26666667;stroke-miterlimit:4;stroke-dasharray:none"
     d="m 261.52475,59.083591 c -2.47409,-0.119266 -5.16877,-0.234389 -5.98816,-0.255829 l -1.48981,-0.03898 -2.15084,-4.420792 c -2.8171,-5.790208 -3.34521,-7.939932 -3.69826,-15.054069 -0.49714,-10.01748 0.28193,-15.600902 2.9505,-21.145507 3.6553,-7.59477 8.34484,-12.5063973 14.8527,-15.5560812 4.17613,-1.95699863 6.02777,-2.23073049 13.8275,-2.04414888 7.28911,0.17436668 8.6786,0.3958344 11.98171,1.90973818 9.29798,4.2615117 16.05696,13.5156079 17.15781,23.4917019 0.73601,6.66991 0.29726,17.076038 -0.92235,21.875725 -0.68783,2.706921 -2.58357,6.881529 -4.05615,8.932066 -1.48455,2.067193 -2.28878,2.321598 -7.33909,2.321598 -2.38433,0 -4.7674,-0.08645 -5.29572,-0.192117 -0.84579,-0.169156 -0.92102,-0.266038 -0.62954,-0.810674 0.18207,-0.340205 1.26807,-1.629141 2.41332,-2.864294 3.46297,-3.734819 5.20339,-8.118343 5.95312,-14.993844 0.45857,-4.205343 0.18518,-12.548996 -0.49486,-15.103257 -1.77227,-6.65661 -6.57324,-13.035198 -11.63294,-15.4555467 -2.97092,-1.421167 -4.45703,-1.7514278 -7.92327,-1.7608014 -6.02098,-0.016282 -11.14118,2.4184411 -15.2989,7.2748311 -1.9409,2.267061 -4.21732,7.142645 -5.21823,11.176331 -0.75584,3.046024 -0.84657,3.978975 -0.8448,8.686468 0.002,4.406236 0.11568,5.733293 0.69298,8.066007 1.412,5.705483 2.83116,8.570857 6.49176,13.10726 2.15827,2.674626 2.45426,3.171225 1.86292,3.125466 -0.38668,-0.02992 -2.72731,-0.151979 -5.2014,-0.271247 z"
     id="path1160"
     transform="scale(0.75)" />
  <path
     style="fill:#ffffff;stroke:#000000;stroke-width:0.04133333;stroke-miterlimit:4;stroke-dasharray:none"
     d="M 3.8370007,79.066382 C 3.0038376,78.88794 2.7920792,77.01478 2.7920792,69.823276 v -5.726115 l 3.7615511,0.08227 c 4.0977627,0.08962 4.7507547,0.204467 5.2893987,0.930309 l 0.316554,0.426568 -0.316554,0.426567 c -0.43776,0.589898 -1.085311,0.767703 -3.4116535,0.936777 -2.0965133,0.152371 -2.5524533,0.300839 -2.8361785,0.923548 -0.2060888,0.452316 -0.2151552,1.441917 -0.017962,1.960574 0.2587255,0.6805 0.759461,0.867206 2.7177794,1.013365 1.3942055,0.104056 1.9183726,0.205354 2.2172426,0.428493 0.517694,0.386514 0.674017,0.846419 0.444332,1.307226 -0.292237,0.586301 -0.9730211,0.811598 -2.7834282,0.921142 -2.443532,0.147854 -2.685578,0.388221 -2.7266304,2.70772 -0.037842,2.138107 -0.5842815,3.124249 -1.6095295,2.904667 z"
     id="path1199"
     transform="scale(0.75)" />
  <path
     style="fill:#ffffff;stroke:#000000;stroke-width:0.00641144;stroke-miterlimit:4;stroke-dasharray:none"
     d="m 18.996425,79.644229 c -2.256825,-0.39113 -3.734618,-1.748499 -4.443106,-4.08104 -0.655804,-2.159094 -0.130845,-4.460879 1.32301,-5.800997 1.140826,-1.051575 3.226847,-1.6673 5.282876,-1.559331 2.985441,0.156776 4.800922,2.164484 4.812348,5.32189 0.0079,2.178073 -0.783772,3.919924 -2.300513,5.061749 -1.212325,0.912655 -3.077087,1.334597 -4.674615,1.057729 z m 2.70136,-2.926517 c 0.753154,-0.536293 1.385131,-1.495652 1.502988,-2.281579 0.265648,-1.771472 -1.491973,-3.635286 -3.456166,-3.664979 -1.308945,-0.01979 -1.904683,0.678145 -2.025987,2.373531 -0.102279,1.429477 0.378921,3.048713 1.081757,3.640111 0.443942,0.373552 0.595197,0.411043 1.441046,0.357183 0.673459,-0.04288 1.091983,-0.164807 1.456362,-0.424267 z"
     id="path1238"
     transform="scale(0.75)" />
  <path
     style="fill:#ffffff;stroke:#000000;stroke-width:0.00641144;stroke-miterlimit:4;stroke-dasharray:none"
     d="m 32.488219,79.512562 c -0.427667,-0.185936 -1.300757,-1.196775 -1.55101,-1.795716 -0.42547,-1.018292 -1.024219,-4.66867 -1.110338,-6.76937 -0.08311,-2.027304 -0.07074,-2.146521 0.308646,-2.975217 0.496665,-1.08486 1.425062,-1.815494 2.306898,-1.815494 0.767828,0 1.145892,0.376839 1.280832,1.276683 0.132707,0.884952 0.58436,1.316752 1.56987,1.500865 0.891636,0.166576 1.399847,0.650365 1.157967,1.102321 -0.143466,0.268069 -0.606561,0.46715 -1.600155,0.687894 -0.326765,0.0726 -0.509054,0.263061 -0.718504,0.75073 -0.734835,1.710934 -0.403477,5.487368 0.506151,5.768517 0.101671,0.03142 0.450507,0.101368 0.775191,0.155431 0.324684,0.05406 0.725017,0.232977 0.88963,0.397589 0.254738,0.254739 0.271992,0.359217 0.115896,0.70181 -0.277809,0.609723 -1.262808,1.038502 -2.526554,1.09983 -0.597195,0.02898 -1.229229,-0.0097 -1.40452,-0.08587 z"
     id="path1277"
     transform="scale(0.75)" />
  <path
     style="fill:#ffffff;stroke:#000000;stroke-width:0.00641144;stroke-miterlimit:4;stroke-dasharray:none"
     d="m 43.504676,79.644229 c -2.226123,-0.385809 -3.721862,-1.738421 -4.41928,-3.996398 -0.62388,-2.019888 -0.229538,-4.199567 1.008999,-5.577117 1.136833,-1.264432 3.238545,-1.977812 5.503697,-1.868108 1.139066,0.05517 1.462201,0.137761 2.309666,0.590361 1.742422,0.930563 2.579087,2.467306 2.576176,4.731784 -0.0028,2.188117 -0.793095,3.923833 -2.304643,5.061749 -1.212325,0.912655 -3.077087,1.334597 -4.674615,1.057729 z m 2.80971,-2.978388 c 1.855974,-1.255077 1.953881,-3.637696 0.210792,-5.129715 -1.598647,-1.368382 -3.235114,-0.977921 -4.280159,1.021247 -0.376821,0.720859 -0.347089,2.198132 0.06006,2.98388 0.589394,1.137472 1.318137,1.617195 2.466998,1.623996 0.647255,0.0038 0.936761,-0.08991 1.542313,-0.499408 z"
     id="path1316"
     transform="scale(0.75)" />
  <path
     style="fill:#ffffff;stroke:#000000;stroke-width:0.00641144;stroke-miterlimit:4;stroke-dasharray:none"
     d="m 57.470296,79.586468 c -0.975245,-0.436583 -1.971713,-1.745223 -2.470403,-3.244329 -0.137272,-0.412649 -0.313862,-1.538895 -0.392424,-2.50277 -0.158383,-1.943208 -0.420607,-2.74782 -1.096959,-3.365926 -0.417888,-0.381902 -0.439685,-0.453658 -0.278368,-0.916412 0.240485,-0.689857 2.178465,-2.693678 2.98082,-3.082091 1.261747,-0.610802 1.810777,-0.334181 2.028782,1.022171 0.132603,0.825006 0.603007,1.258487 1.559623,1.437202 0.891636,0.166576 1.399847,0.650365 1.157968,1.102321 -0.143466,0.268069 -0.606562,0.46715 -1.600156,0.687894 -0.724399,0.160938 -1.066629,1.167261 -1.078061,3.170028 -0.01292,2.263023 0.397713,3.430525 1.206574,3.430525 0.551216,0 1.312514,0.321146 1.473244,0.621473 0.09618,0.179722 0.09391,0.435446 -0.0064,0.720483 -0.132988,0.37789 -0.321718,0.492409 -1.303399,0.790883 -1.319063,0.401052 -1.542677,0.414233 -2.180846,0.128548 z"
     id="path1355"
     transform="scale(0.75)" />
  <path
     style="fill:#ffffff;stroke:#000000;stroke-width:0.00641144;stroke-miterlimit:4;stroke-dasharray:none"
     d="m 67.956823,79.726118 c -1.275162,-0.357455 -2.282738,-0.976041 -3.195273,-1.961688 -1.075483,-1.161649 -1.521726,-2.281656 -1.534704,-3.85189 -0.0082,-0.997346 0.06129,-1.314224 0.487252,-2.220485 0.621989,-1.323326 1.835081,-2.539202 3.20746,-3.214823 0.87548,-0.430997 1.131546,-0.48823 1.926968,-0.430694 1.253236,0.09065 2.751315,0.84905 3.88146,1.964982 1.027037,1.01412 1.478586,1.852337 1.486898,2.760148 0.01182,1.290981 -0.803791,1.602088 -4.228645,1.612974 -3.050471,0.0097 -3.901147,0.215692 -3.686289,0.89265 0.334942,1.05531 1.952974,1.858722 4.160891,2.066035 1.760087,0.165264 2.647836,0.495408 2.721502,1.012097 0.145182,1.01829 -3.280419,1.916507 -5.22752,1.370694 z m 2.000272,-7.326195 c 0.663388,-0.331399 0.797782,-0.915792 0.31176,-1.355636 -0.406392,-0.367779 -1.913169,-0.499032 -2.709978,-0.236061 -0.690287,0.227815 -1.016372,0.789097 -0.688179,1.184545 0.560478,0.675334 2.134027,0.882914 3.086397,0.407152 z"
     id="path1394"
     transform="scale(0.75)" />
  <path
     style="fill:#ffffff;stroke:#000000;stroke-width:0.00641144;stroke-miterlimit:4;stroke-dasharray:none"
     d="m 81.198315,79.492836 c -2.261871,-0.71741 -3.690886,-2.461715 -4.023109,-4.910745 -0.216256,-1.594159 0.473237,-3.568309 1.642633,-4.703169 2.009917,-1.950558 6.228992,-2.273143 7.350185,-0.561985 0.502441,0.766821 -0.08246,1.163904 -1.976071,1.341533 -0.994924,0.09333 -1.632105,0.248351 -2.236799,0.544199 -2.000701,0.978852 -2.324188,3.295198 -0.669019,4.790544 0.764319,0.690516 1.352172,0.936108 2.971678,1.241502 1.874867,0.353548 2.536504,0.951227 1.806204,1.631605 -0.476356,0.443794 -2.152934,0.94259 -3.132337,0.931897 -0.43891,-0.0048 -1.218924,-0.142213 -1.733365,-0.305381 z"
     id="path1433"
     transform="scale(0.75)" />
  <path
     style="fill:#ffffff;stroke:#000000;stroke-width:0.00641144;stroke-miterlimit:4;stroke-dasharray:none"
     d="m 92.472597,79.424777 c -2.083367,-0.504033 -3.220633,-2.22073 -2.897717,-4.374088 0.152713,-1.018361 0.688237,-1.501447 2.113615,-1.906648 2.710964,-0.770664 3.291841,-0.986502 3.745266,-1.391637 0.922945,-0.824651 0.172337,-1.196766 -1.932701,-0.958141 -1.452732,0.16468 -2.432384,-0.0147 -2.921059,-0.534874 -0.31867,-0.339209 -0.334196,-0.419093 -0.148789,-0.765529 0.351195,-0.656214 2.439596,-1.469761 3.783464,-1.473868 2.118842,-0.0065 3.775816,1.707736 4.496308,4.651624 0.293854,1.200671 0.763732,6.070905 0.599911,6.218018 -0.206048,0.185033 -4.124785,0.763321 -5.078223,0.749392 -0.511881,-0.0075 -1.303915,-0.10389 -1.760075,-0.214249 z m 2.562367,-2.658527 c 0.447308,-0.276731 0.804448,-0.640739 0.929454,-0.947327 0.186166,-0.456587 0.172119,-0.533825 -0.169253,-0.930693 -0.313379,-0.364326 -0.492738,-0.432785 -1.13386,-0.432785 -1.601166,0 -2.943418,1.666007 -2.096355,2.602002 0.387165,0.427812 1.524552,0.293722 2.470014,-0.291197 z"
     id="path1472"
     transform="scale(0.75)" />
  <path
     style="fill:#ffffff;stroke:#000000;stroke-width:0.00641144;stroke-miterlimit:4;stroke-dasharray:none"
     d="m 111.33205,79.067711 c -0.84807,-0.185753 -1.08929,-2.206758 -1.01014,-8.462939 0.068,-5.371496 0.14905,-5.90045 0.96445,-6.291253 0.41545,-0.199118 0.51646,-0.186807 1.12768,0.137445 1.27381,0.675755 2.97522,2.70408 6.01665,7.172697 0.85314,1.253468 1.59014,2.281249 1.63778,2.283956 0.0476,0.0027 0.16956,-1.481761 0.27094,-3.298819 0.20251,-3.629649 0.37656,-4.851575 0.81291,-5.70689 0.47997,-0.940819 1.34882,-0.924389 1.68215,0.03181 0.50031,1.435185 0.62756,11.086055 0.16991,12.885936 -0.36398,1.4315 -1.19003,1.63513 -2.60341,0.641773 -1.21493,-0.853887 -2.77366,-2.702597 -5.1828,-6.147012 -1.12199,-1.604134 -2.09715,-2.951942 -2.16703,-2.995128 -0.0699,-0.04319 -0.12843,1.443792 -0.13012,3.304396 -0.003,3.369873 -0.14502,5.106514 -0.47697,5.83506 -0.19429,0.426435 -0.69456,0.7004 -1.112,0.608968 z"
     id="path1511"
     transform="scale(0.75)" />
  <path
     style="fill:#ffffff;stroke:#000000;stroke-width:0.00641144;stroke-miterlimit:4;stroke-dasharray:none"
     d="m 129.0427,79.503567 c -1.27246,-0.38562 -1.77042,-1.302347 -1.77042,-3.259269 0,-2.215788 0.37313,-2.666932 2.69482,-3.258243 1.5915,-0.405339 2.61095,-0.869878 2.83735,-1.292914 0.14239,-0.266069 0.10929,-0.369228 -0.19882,-0.619561 -0.32297,-0.262408 -0.54892,-0.291042 -1.78898,-0.226713 -0.92273,0.04787 -1.61829,0.0052 -1.98799,-0.121871 -1.23976,-0.426209 -1.5474,-1.240114 -0.67035,-1.773481 1.25251,-0.761698 4.54089,-1.070097 5.82625,-0.546413 1.61933,0.659745 2.33962,2.333463 2.47027,5.740112 0.13136,3.425336 -0.18621,4.473864 -1.47109,4.857059 -1.7304,0.516067 -4.98588,0.790757 -5.94104,0.501294 z m 3.3843,-2.559325 c 2.04198,-0.950695 1.62327,-2.897595 -0.53605,-2.492504 -0.72037,0.135142 -1.90415,1.260497 -1.90415,1.810169 0,1.077477 0.9943,1.355507 2.4402,0.682335 z"
     id="path1550"
     transform="scale(0.75)" />
  <path
     style="fill:#ffffff;stroke:#000000;stroke-width:0.00641144;stroke-miterlimit:4;stroke-dasharray:none"
     d="m 145.26567,79.493284 c -1.9053,-0.382433 -3.39979,-1.29055 -3.95313,-2.402106 -0.35488,-0.712883 -0.38566,-0.946721 -0.38779,-2.945964 -0.003,-3.181249 0.46009,-4.083358 2.62378,-5.106949 1.86299,-0.881334 3.80125,-1.025687 5.08572,-0.378762 1.62239,0.81712 0.86538,1.992121 -1.28514,1.994746 -3.28238,0.004 -5.10681,2.954601 -3.1596,5.109925 0.64109,0.709608 1.6591,1.174522 3.22995,1.475074 2.08333,0.398608 2.66112,0.914248 1.84326,1.645001 -0.74834,0.668647 -2.42629,0.924318 -3.99705,0.609035 z"
     id="path1589"
     transform="scale(0.75)" />
  <path
     style="fill:#ffffff;stroke:#000000;stroke-width:0.00641144;stroke-miterlimit:4;stroke-dasharray:none"
     d="m 154.55152,79.005046 c -0.52162,-0.252574 -0.69409,-0.837127 -0.87663,-2.971245 -0.12421,-1.452154 -0.12346,-2.558225 0.003,-4.096294 0.19082,-2.324838 0.41023,-2.868371 1.19545,-2.961511 1.05924,-0.125645 1.35147,0.958529 1.35147,5.014102 0,3.319265 -0.17044,4.425122 -0.75256,4.883022 -0.44764,0.35211 -0.46164,0.354116 -0.92051,0.131926 z"
     id="path1628"
     transform="scale(0.75)" />
  <path
     style="fill:#ffffff;stroke:#000000;stroke-width:0.00641144;stroke-miterlimit:4;stroke-dasharray:none"
     d="m 154.18312,66.893563 c -0.5857,-0.960605 -0.2748,-2.04779 0.72067,-2.520171 0.69359,-0.329133 0.98896,-0.198943 1.23633,0.544945 0.5478,1.64734 -1.12654,3.33728 -1.957,1.975226 z"
     id="path1667"
     transform="scale(0.75)" />
  <path
     style="fill:#ffffff;stroke:#000000;stroke-width:0.00641144;stroke-miterlimit:4;stroke-dasharray:none"
     d="m 164.31169,79.59079 c -1.67194,-0.545274 -3.18774,-1.938072 -3.78227,-3.475356 -0.42469,-1.098117 -0.46897,-3.167664 -0.0895,-4.18232 0.40471,-1.082139 1.12757,-1.985927 2.11661,-2.64638 1.3044,-0.871046 2.31334,-1.185996 3.80812,-1.188741 1.08901,-0.002 1.37001,0.05966 2.25312,0.494415 1.23355,0.607275 2.49859,1.843284 3.0637,2.9934 0.36126,0.735242 0.41919,1.046051 0.41919,2.249175 0,1.192085 -0.0611,1.526403 -0.41818,2.288363 -0.57964,1.236871 -1.81175,2.492495 -3.03837,3.09636 -0.85116,0.419025 -1.20441,0.500355 -2.34061,0.538884 -0.83527,0.02832 -1.5838,-0.03474 -1.99181,-0.1678 z m 3.08127,-2.898656 c 0.51382,-0.274986 0.75255,-1.097729 0.74885,-2.580717 -0.005,-2.145461 -0.72016,-3.301187 -2.04172,-3.301187 -0.79083,0 -1.31595,0.284094 -2.10262,1.137532 -1.80973,1.963321 -0.45459,4.911448 2.25777,4.911851 0.45351,6.7e-5 0.96548,-0.0753 1.13772,-0.167479 z"
     id="path1706"
     transform="scale(0.75)" />
  <path
     style="fill:#ffffff;stroke:#000000;stroke-width:0.00641144;stroke-miterlimit:4;stroke-dasharray:none"
     d="m 177.1738,79.023969 c -0.6,-0.240798 -0.83285,-1.113327 -0.98477,-3.690024 -0.0771,-1.308408 -0.27607,-3.079507 -0.44205,-3.935775 -0.34518,-1.780609 -0.28389,-2.036771 0.57293,-2.394772 0.68309,-0.285415 4.30702,-0.828456 5.53503,-0.829417 1.34118,-0.001 2.05938,0.271612 2.88185,1.094083 1.25902,1.25902 1.79573,3.278656 1.68145,6.327198 -0.0983,2.620582 -0.71823,3.86486 -1.68549,3.382733 -0.60438,-0.301248 -0.80101,-0.948789 -0.94128,-3.099788 -0.16695,-2.560079 -0.47375,-3.68122 -1.22289,-4.468728 -0.48533,-0.510183 -0.66699,-0.599249 -1.22223,-0.599249 -0.94648,0 -1.54183,0.367942 -1.89793,1.17296 -0.32668,0.738518 -0.59491,2.632445 -0.60276,4.256083 -0.007,1.392857 -0.21951,2.187095 -0.69603,2.598185 -0.44757,0.386114 -0.46851,0.390116 -0.97583,0.186511 z"
     id="path1782"
     transform="scale(0.75)" />
  <path
     style="fill:#ffffff;stroke:#000000;stroke-width:0.00641144;stroke-miterlimit:4;stroke-dasharray:none"
     d="m 191.64521,79.446291 c -1.52416,-0.710106 -2.14913,-2.389889 -1.54683,-4.157545 0.53904,-1.581972 1.72457,-2.432374 3.66398,-2.628233 1.33143,-0.13446 2.07595,-0.446537 2.23104,-0.935185 0.20949,-0.660042 -0.2304,-0.830317 -2.37598,-0.919707 -2.02509,-0.08437 -2.47612,-0.208726 -2.88757,-0.79615 -0.47323,-0.675626 0.15691,-1.160127 2.07873,-1.598299 1.53809,-0.350684 3.45578,-0.358514 4.26567,-0.01742 1.8418,0.775696 2.55488,2.577081 2.55302,6.449478 -0.002,3.474388 -0.22533,3.890845 -2.34598,4.368302 -1.74177,0.392156 -5.00638,0.528134 -5.63608,0.234756 z m 3.95849,-2.547777 c 1.50032,-0.767146 1.81238,-1.786341 0.70816,-2.312906 -0.91387,-0.435797 -2.27282,0.06872 -2.88366,1.070564 -0.38989,0.639478 -0.38969,0.968149 8.4e-4,1.358678 0.43221,0.432208 1.18011,0.392198 2.17466,-0.116336 z"
     id="path1821"
     transform="scale(0.75)" />
  <path
     style="fill:#ffffff;stroke:#000000;stroke-width:0.00641144;stroke-miterlimit:4;stroke-dasharray:none"
     d="m 205.51823,78.978225 c -0.22161,-0.110323 -0.46565,-0.443063 -0.58992,-0.804318 -0.44397,-1.290652 -0.47492,-11.367541 -0.0396,-12.909471 0.35841,-1.269659 1.33979,-1.402974 1.82254,-0.247583 0.66328,1.587437 0.66328,11.705588 0,13.293025 -0.29081,0.696006 -0.68915,0.919172 -1.19298,0.668347 z"
     id="path1860"
     transform="scale(0.75)" />
  <path
     style="fill:#ffffff;stroke:#000000;stroke-width:0.00906715;stroke-miterlimit:4;stroke-dasharray:none"
     d="m 221.25499,79.264003 c -1.16596,-0.328669 -2.87288,-2.015333 -3.1816,-3.143842 -0.37186,-1.359278 -0.28968,-3.384744 0.17923,-4.417384 0.61279,-1.349497 1.85219,-2.598153 3.12043,-3.143738 0.9589,-0.412506 1.34896,-0.461719 2.63551,-0.332515 1.78755,0.179517 2.1577,-0.0231 2.15948,-1.18209 0.003,-1.841277 0.74864,-3.083298 1.64494,-2.739357 0.75129,0.288299 0.85795,1.184652 0.93944,7.894943 l 0.0803,6.609449 -1.38778,0.255678 c -2.02788,0.373611 -5.20759,0.475762 -6.18991,0.198856 z m 3.52475,-2.710366 c 1.17807,-0.771899 1.66824,-3.366134 0.86705,-4.588899 -0.86975,-1.327402 -2.56874,-1.510275 -3.86872,-0.416414 -1.39347,1.172521 -1.69072,2.710235 -0.78233,4.04705 0.9662,1.421894 2.48818,1.80732 3.784,0.958263 z"
     id="path1899"
     transform="scale(0.75)" />
  <path
     style="fill:#ffffff;stroke:#000000;stroke-width:0.00641144;stroke-miterlimit:4;stroke-dasharray:none"
     d="m 237.74366,79.482158 c -2.84644,-0.416211 -4.72042,-2.445587 -4.88509,-5.290202 -0.0864,-1.493248 0.14177,-2.447771 0.83817,-3.505782 0.66376,-1.008435 2.01972,-1.926446 3.51738,-2.381348 1.88784,-0.573413 3.26569,-0.07366 5.09691,1.848678 1.94889,2.04587 2.13587,3.032622 0.70876,3.740299 -0.66592,0.330216 -1.04326,0.381524 -3.5857,0.487569 -3.69032,0.153922 -4.03864,0.333863 -2.9592,1.528679 0.76668,0.84862 1.82864,1.259418 3.70546,1.433383 1.73836,0.161132 2.02783,0.223373 2.53927,0.545998 0.28728,0.181223 0.32181,0.27753 0.18871,0.526246 -0.24618,0.459986 -1.25668,0.907427 -2.43367,1.07761 -1.1992,0.173394 -1.47679,0.172263 -2.731,-0.01113 z m 1.67713,-7.088783 c 0.63089,-0.215289 0.78418,-0.338517 0.8217,-0.660545 0.0293,-0.251835 -0.0755,-0.505819 -0.28817,-0.69802 -0.45658,-0.412663 -2.6128,-0.428163 -3.36214,-0.02417 -0.84012,0.452933 -0.83468,1.388745 0.009,1.552981 0.79312,0.154389 2.09941,0.07552 2.8196,-0.170247 z"
     id="path1938"
     transform="scale(0.75)" />
  <path
     style="fill:#ffffff;stroke:#000000;stroke-width:0.00641144;stroke-miterlimit:4;stroke-dasharray:none"
     d="m 248.1988,79.050977 c -1.02933,-0.287941 -1.25255,-1.604525 -1.25255,-7.387612 0,-5.951118 0.21115,-7.095374 1.37069,-7.427926 0.79786,-0.228824 1.44729,0.04455 1.80682,0.760576 0.28829,0.574154 0.31396,0.987161 0.36291,5.840368 0.0524,5.198189 -0.0639,7.068053 -0.48155,7.738589 -0.15767,0.253135 -1.0619,0.650323 -1.35496,0.595169 -0.0427,-0.008 -0.24577,-0.06165 -0.45136,-0.119164 z"
     id="path1977"
     transform="scale(0.75)" />
  <path
     style="fill:#ffffff;stroke:#000000;stroke-width:0.00641144;stroke-miterlimit:4;stroke-dasharray:none"
     d="m 262.37788,79.074902 c -1.11175,-0.270844 -1.24092,-1.042301 -1.24092,-7.411537 0,-6.632913 0.12266,-7.246151 1.49314,-7.464712 0.78223,-0.124749 1.35149,0.161535 1.65545,0.832538 0.23386,0.516252 0.26395,1.263405 0.26395,6.554617 0,6.713554 -0.0372,7.004644 -0.94269,7.382998 -0.53459,0.223366 -0.69184,0.236941 -1.22893,0.106096 z"
     id="path2016"
     transform="scale(0.75)" />
  <path
     style="fill:#ffffff;stroke:#000000;stroke-width:0.00641144;stroke-miterlimit:4;stroke-dasharray:none"
     d="m 269.45958,78.937595 c -0.55456,-0.388434 -0.67784,-1.220087 -0.75739,-5.109619 -0.10787,-5.273978 0.15476,-6.594792 1.33455,-6.711871 1.11113,-0.110266 2.5245,1.324849 5.07321,5.151269 l 1.84879,2.775625 0.1068,-2.930741 c 0.0587,-1.611907 0.14953,-3.222487 0.20176,-3.579065 0.12503,-0.853586 0.59698,-1.445735 1.15226,-1.445735 1.08208,0 1.32023,1.089277 1.3226,6.049505 0.002,4.024914 -0.13884,5.163501 -0.70129,5.672511 -0.38702,0.350254 -1.10865,0.321559 -1.74095,-0.06923 -0.91461,-0.565256 -2.66109,-2.547982 -3.97921,-4.517474 -0.71372,-1.066419 -1.32143,-1.968028 -1.35045,-2.003575 -0.13245,-0.162215 -0.19636,0.196405 -0.35732,2.005001 -0.0948,1.065635 -0.24957,2.343334 -0.34386,2.83933 -0.28889,1.519725 -1.10647,2.366484 -1.8095,1.874069 z"
     id="path2055"
     transform="scale(0.75)" />
  <path
     style="fill:#ffffff;stroke:#000000;stroke-width:0.00641144;stroke-miterlimit:4;stroke-dasharray:none"
     d="m 282.75,79.086768 c -0.41205,-0.1166 -0.44218,-0.436676 -0.13941,-1.481155 0.54893,-1.893714 3.59449,-9.552957 4.07077,-10.237529 0.60476,-0.869251 1.59829,-0.682773 2.66125,0.499499 1.18534,1.318377 2.15674,3.571024 4.32846,10.037544 0.14017,0.417387 0.12332,0.552687 -0.0995,0.798892 -0.41039,0.453473 -0.80162,0.483819 -1.52563,0.118336 -0.53463,-0.269879 -0.7507,-0.5168 -1.12681,-1.287688 -0.79136,-1.62198 -1.39005,-2.070972 -2.76144,-2.070972 -1.15021,0 -1.75889,0.425853 -2.35737,1.64931 -0.5472,1.118608 -0.76714,1.400563 -1.31255,1.682603 -0.47427,0.245258 -1.36977,0.395295 -1.73778,0.29116 z m 6.20175,-5.988905 c 0.0575,-0.499628 -0.44859,-1.290511 -0.92189,-1.440733 -0.39468,-0.125266 -0.53725,0.0147 -0.67341,0.661152 -0.0867,0.411761 -0.0344,0.570636 0.29685,0.901931 0.54949,0.549489 1.22852,0.485506 1.29845,-0.12235 z"
     id="path2094"
     transform="scale(0.75)" />
  <path
     style="fill:#ffffff;stroke:#000000;stroke-width:0.00641144;stroke-miterlimit:4;stroke-dasharray:none"
     d="m 297.87825,78.994379 c -0.18222,-0.08237 -0.40857,-0.319329 -0.503,-0.526583 -0.45172,-0.991413 -0.64106,-6.317353 -0.32462,-9.131163 0.18852,-1.676324 0.47294,-2.171617 1.24706,-2.171617 0.78738,0 1.15688,0.651696 1.28083,2.259013 0.0553,0.717828 0.2009,1.432449 0.33273,1.633638 0.59272,0.904615 3.60185,0.908767 4.19351,0.0058 0.12679,-0.193516 0.29274,-0.965551 0.36877,-1.715633 0.16688,-1.646399 0.46666,-2.158857 1.30477,-2.230436 0.48699,-0.04159 0.58885,0.01259 0.80328,0.427256 0.37129,0.717989 0.53755,2.423683 0.53755,5.514765 0,4.964928 -0.40409,6.419754 -1.65466,5.957141 -0.57087,-0.211181 -0.84907,-0.845833 -0.99294,-2.265214 -0.0749,-0.73927 -0.23998,-1.50246 -0.36677,-1.695975 -0.59166,-0.902981 -3.60079,-0.898829 -4.19351,0.0058 -0.13183,0.201189 -0.27738,0.91581 -0.33273,1.633638 -0.13809,1.790707 -0.81141,2.701371 -1.70027,2.299598 z"
     id="path2133"
     transform="scale(0.75)" />
</svg>
