<?xml version="1.0" encoding="UTF-8" standalone="no"?>
<svg
   version="1.0"
   width="232.10454pt"
   height="60pt"
   viewBox="0 0 232.10454 60"
   preserveAspectRatio="xMidYMid"
   id="svg66"
   sodipodi:docname="SINAFO.svg"
   inkscape:version="1.2.2 (732a01da63, 2022-12-09)"
   xmlns:inkscape="http://www.inkscape.org/namespaces/inkscape"
   xmlns:sodipodi="http://sodipodi.sourceforge.net/DTD/sodipodi-0.dtd"
   xmlns="http://www.w3.org/2000/svg"
   xmlns:svg="http://www.w3.org/2000/svg">
  <defs
     id="defs70" />
  <sodipodi:namedview
     id="namedview68"
     pagecolor="#ffffff"
     bordercolor="#000000"
     borderopacity="0.25"
     inkscape:showpageshadow="2"
     inkscape:pageopacity="0.0"
     inkscape:pagecheckerboard="0"
     inkscape:deskcolor="#d1d1d1"
     inkscape:document-units="pt"
     showgrid="false"
     inkscape:zoom="3.2234043"
     inkscape:cx="219.0231"
     inkscape:cy="56.927393"
     inkscape:window-width="1920"
     inkscape:window-height="991"
     inkscape:window-x="-9"
     inkscape:window-y="-9"
     inkscape:window-maximized="1"
     inkscape:current-layer="svg66" />
  <metadata
     id="metadata2">
Created by potrace 1.16, written by Peter Selinger 2001-2019
</metadata>
  <g
     transform="matrix(0.07070897,0,0,-0.07070897,-0.10700512,60.102624)"
     fill="#000000"
     stroke="none"
     id="g64">
    <path
       d="M 115,826 C 57,799 37,779 15,727 -16,651 8,555 71,507 c 19,-14 73,-43 120,-65 48,-22 95,-51 107,-67 26,-33 29,-95 6,-130 l -16,-25 h 60 c 58,0 60,1 71,31 24,70 7,151 -44,200 -18,18 -80,56 -137,84 -88,43 -106,55 -121,87 -16,33 -17,40 -3,71 21,51 58,72 125,71 31,-1 73,-8 94,-17 l 37,-16 15,36 c 9,21 14,42 11,49 -7,17 -87,34 -163,34 -50,0 -81,-6 -118,-24 z"
       id="path4" />
    <path
       d="m 2839,832 c -65,-27 -104,-59 -143,-116 -54,-81 -69,-141 -65,-264 4,-95 8,-114 34,-167 l 30,-60 74,-3 73,-3 -35,42 c -113,131 -90,386 41,470 115,73 244,29 303,-104 20,-43 24,-69 24,-147 0,-104 -23,-176 -71,-221 -13,-12 -24,-26 -24,-31 0,-4 29,-8 64,-8 59,0 66,2 84,27 42,62 57,123 56,238 0,89 -4,121 -22,166 -29,72 -77,128 -143,164 -46,25 -67,30 -144,32 -70,3 -100,-1 -136,-15 z"
       id="path6" />
    <path
       d="M 540,530 V 220 h 55 55 v 310 310 h -55 -55 z"
       id="path8" />
    <path
       d="M 800,530 V 220 h 51 51 l -3,233 -4,234 52,-91 c 29,-50 92,-154 141,-231 l 88,-140 87,-3 87,-3 v 311 310 h -51 -51 l 4,-283 3,-283 -35,67 c -19,37 -96,164 -170,283 l -135,215 -57,1 h -58 z"
       id="path10" />
    <path
       d="m 1685,828 c -15,-41 -205,-600 -205,-604 0,-2 24,-4 53,-4 h 54 l 18,60 18,60 h 122 123 l 22,-60 22,-60 h 55 c 52,0 54,1 47,23 -4,12 -51,150 -104,307 l -98,285 -61,3 c -43,2 -63,-1 -66,-10 z m 66,-406 c -51,-1 -95,-1 -97,1 -2,1 17,64 41,137 24,74 45,144 45,155 1,11 24,-50 53,-135 l 52,-155 z"
       id="path12" />
    <path
       d="M 2150,530 V 220 h 50 50 v 110 110 h 135 135 v 45 45 h -135 -135 v 110 110 h 150 150 v 45 45 h -200 -200 z"
       id="path14" />
    <path
       d="m 30,90 c 0,-64 3,-80 15,-80 10,0 15,10 15,30 0,27 3,30 30,30 20,0 30,5 30,15 0,10 -10,15 -30,15 -23,0 -30,4 -30,20 0,16 7,20 35,20 24,0 35,5 35,15 0,11 -12,15 -50,15 H 30 Z"
       id="path16" />
    <path
       d="m 1170,90 c 0,-64 3,-80 15,-80 11,0 15,13 15,53 v 52 l 37,-53 c 21,-30 44,-52 55,-52 16,0 18,9 18,80 0,63 -3,80 -14,80 -11,0 -16,-15 -18,-52 l -3,-51 -35,51 c -20,29 -43,52 -52,52 -16,0 -18,-10 -18,-80 z"
       id="path18" />
    <path
       d="m 1635,160 c -8,-13 4,-32 16,-25 12,8 12,35 0,35 -6,0 -13,-4 -16,-10 z"
       id="path20" />
    <path
       d="m 2170,90 c 0,-64 3,-80 15,-80 12,0 15,16 15,80 0,64 -3,80 -15,80 -12,0 -15,-16 -15,-80 z"
       id="path22" />
    <path
       d="m 2400,146 c 0,-19 -4,-23 -20,-19 -34,9 -70,-23 -70,-62 0,-45 31,-67 83,-58 l 37,6 v 78 c 0,64 -3,79 -15,79 -9,0 -15,-9 -15,-24 z m -2,-72 c 4,-29 -23,-51 -43,-34 -18,15 -19,32 -3,48 18,18 42,10 46,-14 z"
       id="path24" />
    <path
       d="m 2620,90 c 0,-73 2,-80 20,-80 18,0 20,7 20,80 0,73 -2,80 -20,80 -18,0 -20,-7 -20,-80 z"
       id="path26" />
    <path
       d="m 2770,90 c 0,-73 2,-80 20,-80 18,0 20,7 20,80 0,73 -2,80 -20,80 -18,0 -20,-7 -20,-80 z"
       id="path28" />
    <path
       d="m 321,132 c -8,-16 -7,-40 5,-98 2,-12 11,-24 19,-28 18,-6 45,2 45,15 0,5 -7,9 -15,9 -10,0 -15,11 -15,35 0,24 5,35 15,35 8,0 15,5 15,10 0,6 -7,10 -15,10 -8,0 -15,7 -15,15 0,21 -27,19 -39,-3 z"
       id="path30" />
    <path
       d="m 576,128 c -13,-14 -15,-23 -8,-26 7,-2 12,-19 12,-37 0,-37 25,-69 47,-61 8,3 17,6 19,6 2,0 4,5 4,10 0,6 -7,10 -15,10 -10,0 -15,11 -15,35 0,24 5,35 15,35 8,0 15,5 15,10 0,6 -7,10 -15,10 -8,0 -15,7 -15,15 0,22 -23,18 -44,-7 z"
       id="path32" />
    <path
       d="m 2850,75 c 0,-50 3,-65 14,-65 10,0 16,13 18,37 l 3,37 25,-37 c 14,-20 33,-37 43,-37 14,0 17,10 17,65 0,51 -3,65 -15,65 -11,0 -15,-11 -15,-42 V 55 l -28,42 c -15,24 -35,43 -44,43 -15,0 -18,-10 -18,-65 z"
       id="path34" />
    <path
       d="M 3037,128 C 2987,4 2989,10 3009,10 c 10,0 21,9 24,20 7,26 44,26 52,0 3,-11 13,-20 22,-20 8,0 13,6 11,13 -3,6 -13,36 -23,65 -19,51 -46,70 -58,40 z m 28,-48 c 3,-5 1,-10 -4,-10 -6,0 -11,5 -11,10 0,6 2,10 4,10 3,0 8,-4 11,-10 z"
       id="path36" />
    <path
       d="m 3150,75 c 0,-51 3,-65 15,-65 9,0 15,9 15,25 0,20 5,25 25,25 20,0 25,-5 25,-25 0,-16 6,-25 15,-25 12,0 15,14 15,65 0,51 -3,65 -15,65 -9,0 -15,-9 -15,-25 0,-20 -5,-25 -25,-25 -20,0 -25,5 -25,25 0,16 -6,25 -15,25 -12,0 -15,-14 -15,-65 z"
       id="path38" />
    <path
       d="M 183,120 C 136,101 144,19 195,6 c 43,-11 79,13 83,56 5,54 -39,81 -95,58 z m 61,-42 c 13,-22 -14,-54 -38,-45 -16,6 -22,48 -9,61 11,11 35,3 47,-16 z"
       id="path40" />
    <path
       d="M 443,120 C 396,101 404,19 455,6 c 43,-11 79,13 83,56 5,54 -39,81 -95,58 z m 57,-35 c 15,-18 7,-43 -16,-52 -24,-9 -46,24 -33,48 12,23 32,24 49,4 z"
       id="path42" />
    <path
       d="m 690,110 c -49,-49 3,-126 71,-105 29,9 23,25 -10,25 -16,0 -34,7 -41,15 -11,13 -6,15 34,15 39,0 46,3 46,19 0,22 -35,51 -62,51 -10,0 -27,-9 -38,-20 z m 60,-20 c 0,-5 -9,-10 -20,-10 -11,0 -20,5 -20,10 0,6 9,10 20,10 11,0 20,-4 20,-10 z"
       id="path44" />
    <path
       d="M 843,115 C 810,92 811,36 845,14 861,4 879,0 895,4 c 33,8 32,24 -1,28 -57,7 -53,68 3,68 15,0 23,5 21,13 -7,18 -50,20 -75,2 z"
       id="path46" />
    <path
       d="m 973,123 c -27,-10 -13,-30 18,-25 41,6 31,-13 -11,-21 -24,-5 -30,-12 -30,-31 0,-32 27,-47 72,-40 l 35,6 -4,47 c -7,60 -35,83 -80,64 z m 47,-73 c 0,-12 -28,-25 -36,-17 -9,9 6,27 22,27 8,0 14,-5 14,-10 z"
       id="path48" />
    <path
       d="m 1368,123 c -27,-7 -10,-31 18,-25 13,2 24,0 24,-6 0,-5 -13,-12 -30,-15 -25,-6 -30,-11 -30,-36 0,-34 15,-42 64,-34 35,6 36,6 36,54 0,61 -23,78 -82,62 z m 52,-73 c 0,-12 -28,-25 -36,-17 -9,9 6,27 22,27 8,0 14,-5 14,-10 z"
       id="path50" />
    <path
       d="m 1520,117 c -20,-10 -25,-20 -25,-52 0,-34 4,-42 28,-53 27,-13 67,-8 67,8 0,5 -12,10 -26,12 -57,7 -53,68 3,68 15,0 23,5 21,13 -6,17 -39,19 -68,4 z"
       id="path52" />
    <path
       d="m 1722,114 c -32,-22 -30,-78 3,-100 66,-43 140,41 85,96 -24,24 -57,26 -88,4 z m 63,-49 c 0,-23 -5,-30 -19,-30 -28,0 -43,29 -26,50 21,25 45,14 45,-20 z"
       id="path54" />
    <path
       d="m 1887,123 c -24,-4 -28,-8 -23,-26 3,-12 6,-37 6,-54 0,-23 5,-33 15,-33 11,0 15,11 15,40 0,28 5,43 16,47 21,8 34,-13 34,-54 0,-23 5,-33 15,-33 21,0 21,83 -1,104 -15,16 -23,17 -77,9 z"
       id="path56" />
    <path
       d="m 2037,123 c -28,-7 -14,-28 16,-25 15,2 27,-1 27,-7 0,-6 -11,-11 -25,-11 -41,0 -57,-59 -20,-74 8,-3 30,-2 49,1 35,6 36,6 36,54 0,61 -22,78 -83,62 z m 53,-73 c 0,-12 -28,-25 -36,-17 -9,9 6,27 22,27 8,0 14,-5 14,-10 z"
       id="path58" />
    <path
       d="m 2492,114 c -34,-23 -28,-84 10,-102 27,-13 78,-7 78,9 0,5 -13,9 -29,9 -16,0 -34,7 -41,15 -11,13 -6,15 34,15 52,0 60,16 26,50 -24,24 -48,25 -78,4 z m 58,-24 c 0,-5 -12,-10 -26,-10 -14,0 -23,4 -19,10 3,6 15,10 26,10 10,0 19,-4 19,-10 z"
       id="path60" />
    <path
       d="m 1630,65 c 0,-42 3,-55 15,-55 12,0 15,13 15,55 0,42 -3,55 -15,55 -12,0 -15,-13 -15,-55 z"
       id="path62" />
  </g>
</svg>
